<svg t="1622621866628" class="icon" viewBox="0 0 1024 1024" version="1.1" xmlns="http://www.w3.org/2000/svg" p-id="12243" data-spm-anchor-id="a313x.7781069.0.i15" width="28" height="28"><path d="M904.533333 501.333333H119.466667c-14.933333 0-27.733333-8.533333-32-23.466666-4.266667-12.8-2.133333-27.733333 8.533333-38.4L488.533333 93.866667c12.8-12.8 32-12.8 46.933334 0l392.533333 345.6c10.666667 8.533333 14.933333 25.6 8.533333 38.4-4.266667 12.8-17.066667 23.466667-32 23.466666zM211.2 430.933333H810.666667L512 166.4 211.2 430.933333z" fill="#3977F4" p-id="12244" data-spm-anchor-id="a313x.7781069.0.i4" class=""></path><path d="M789.333333 938.666667H234.666667c-19.2 0-34.133333-14.933333-34.133334-34.133334V465.066667c0-19.2 14.933333-34.133333 34.133334-34.133334s34.133333 14.933333 34.133333 34.133334v403.2h484.266667V465.066667c0-19.2 14.933333-34.133333 34.133333-34.133334s34.133333 14.933333 34.133333 34.133334v437.333333c2.133333 21.333333-12.8 36.266667-32 36.266667z" fill="#3977F4" p-id="12245" data-spm-anchor-id="a313x.7781069.0.i10" class=""></path><path d="M608 915.2c-19.2 0-34.133333-14.933333-34.133333-34.133333v-181.333334c0-34.133333-27.733333-59.733333-59.733334-59.733333-34.133333 0-59.733333 27.733333-59.733333 59.733333v181.333334c0 19.2-14.933333 34.133333-34.133333 34.133333-19.2 0-34.133333-14.933333-34.133334-34.133333v-181.333334c0-72.533333 57.6-130.133333 130.133334-130.133333 72.533333 0 130.133333 57.6 130.133333 130.133333v181.333334c-4.266667 19.2-19.2 34.133333-38.4 34.133333z" fill="#FFA24C" p-id="12246" data-spm-anchor-id="a313x.7781069.0.i5" class=""></path><path d="M608 915.2c19.2 0 34.133333-14.933333 34.133333-34.133333v-10.666667h-68.266666v10.666667c0 19.2 14.933333 34.133333 34.133333 34.133333zM416 915.2c19.2 0 34.133333-14.933333 34.133333-34.133333v-10.666667h-68.266666v10.666667c0 19.2 14.933333 34.133333 34.133333 34.133333z" fill="#3977F4" p-id="12247" data-spm-anchor-id="a313x.7781069.0.i12" class=""></path><path d="M789.333333 430.933333c-19.2 0-34.133333 14.933333-34.133333 34.133334v34.133333h68.266667v-34.133333c0-19.2-14.933333-34.133333-34.133334-34.133334zM268.8 501.333333v-34.133333c0-19.2-14.933333-34.133333-34.133333-34.133333s-34.133333 14.933333-34.133334 34.133333v34.133333h68.266667z" fill="#3977F4" p-id="12248" data-spm-anchor-id="a313x.7781069.0.i11" class=""></path></svg>